<mxfile host="app.diagrams.net" modified="2023-06-25T13:29:55.828Z" agent="Mozilla/5.0 (X11; Linux x86_64) AppleWebKit/537.36 (KHTML, like Gecko) Chrome/112.0.0.0 Safari/537.36" version="21.5.0" etag="0GXatwekJzOp7wu4lEft" type="github">
  <diagram name="Страница 1" id="ZAtNmaoIQf-bZxYkxCCT">
    <mxGraphModel>
      <root>
        <mxCell id="0" />
        <mxCell id="1" parent="0" />
      </root>
    </mxGraphModel>
  </diagram>
</mxfile>
